<svg width="648" height="161" viewBox="0 0 648 161" fill="none" xmlns="http://www.w3.org/2000/svg">
<path d="M495.563 134.455L503.943 115.339H532.488C548.201 115.339 560.771 116.387 560.248 117.434C559.986 118.743 555.534 128.694 541.392 159.856H513.109C491.896 159.856 485.349 159.071 486.135 156.714C486.659 154.881 491.111 144.668 495.563 134.455Z" fill="#ffffff"/>
<path d="M401.809 157.761C402.333 156.452 406.523 146.501 411.499 135.503L420.403 115.339H448.686C464.399 115.339 477.231 115.863 477.231 116.649C477.231 117.434 474.874 122.933 472.255 128.956C469.637 135.241 465.446 144.668 458.899 159.856H430.092C414.118 159.856 401.547 158.809 401.809 157.761Z" fill="#ffffff"/>
<path d="M324.292 144.93C327.958 136.55 332.148 126.599 333.72 122.671L336.339 115.339H364.884C393.167 115.339 393.429 115.339 391.596 121.362C390.81 124.505 386.62 134.455 375.097 159.856H317.483L324.292 144.93Z" fill="#ffffff"/>
<path d="M239.442 144.93C242.323 138.122 246.251 128.433 248.084 123.981L251.751 115.339H280.82C302.556 115.339 309.365 116.125 308.579 118.743C308.055 120.315 303.603 130.527 289.985 160.118L261.964 159.856C246.251 159.856 233.943 159.333 233.943 158.809C234.204 158.285 236.561 152 239.442 144.93Z" fill="#ffffff"/>
<path d="M262.75 90.1999C267.202 80.249 273.749 65.8464 277.153 58.5141L283.176 44.6353H341.052L332.148 65.0608C327.173 76.0592 320.887 90.7236 312.245 110.102H283.438C267.725 110.102 254.631 109.578 254.631 109.054C254.631 108.53 258.298 100.151 262.75 90.1999Z" fill="#ffffff"/>
<path d="M589.055 54.5863C591.673 52.2295 597.173 48.3015 601.625 46.2066C606.601 43.5879 616.29 42.0167 647.454 42.0167L638.55 62.4422C633.836 73.4406 628.075 86.0101 626.242 89.9381C622.837 96.7466 621.528 97.2704 605.553 97.0085C597.471 96.6215 591.962 96.6526 587.926 97.0293C575.022 98.2336 565.753 110.829 552.8 110.4C548.803 110.267 543.328 110.102 535.631 110.102C511.276 110.102 508.657 109.578 509.966 105.65C510.752 103.031 517.037 88.3669 536.154 44.8972L589.84 44.6354L586.96 51.9676C584.341 58.7761 584.341 58.7761 589.055 54.5863Z" fill="#ffffff"/>
<path d="M342.624 104.341C343.671 100.937 353.884 76.3212 365.669 49.349L386.882 0.380152L445.805 0.118286L440.829 11.3785C438.21 17.4014 432.711 29.1854 429.045 37.5651C425.378 45.6829 422.236 53.0152 422.236 53.8008C422.236 54.5864 427.211 52.2296 433.235 48.5634C441.615 43.8499 448.424 42.0168 458.899 42.0168C468.851 42.0168 475.922 43.588 481.683 47.2541C486.921 50.3965 491.373 55.8957 492.682 61.133C494.253 66.3703 494.253 73.4407 492.42 79.9873C490.849 85.7484 487.444 94.9137 479.85 110.102H452.352C431.925 110.102 424.855 109.316 424.855 106.96C425.116 105.126 426.688 100.675 428.783 97.0086C430.878 93.3425 432.449 88.367 432.711 86.0102C432.711 83.3916 430.354 79.9873 427.473 78.678C423.545 76.8449 420.403 77.1068 415.689 79.9873C412.022 82.0823 406.523 89.6764 397.357 110.102H369.074C341.314 110.102 341.052 110.102 342.624 104.341Z" fill="#ffffff"/>
<path d="M286.097 35.4702C286.359 34.4227 291.295 23.4243 294.961 15.3065L301.77 0.118286H330.577C346.29 0.118286 359.384 0.642018 359.384 1.42761C359.384 2.21321 355.718 10.331 343.672 36.7795L315.701 36.2554C300.25 35.7317 285.835 36.5176 286.097 35.4702Z" fill="#FD0000"/>
<path d="M0.605469 32.8515C0.605469 30.7566 2.96241 22.3769 6.10499 14.5209L11.6045 0.118286H119.5C221.11 0.118286 227.657 0.642018 238.394 5.3556C246.513 9.28359 250.441 13.2116 253.584 20.2819C255.941 26.043 256.988 33.6371 256.202 38.0888C255.417 42.5405 252.012 50.1346 248.608 55.1101C244.942 60.6093 236.561 67.4178 211.421 80.5111L218.491 83.6535C222.943 85.2246 227.395 90.462 229.752 95.6993C231.847 100.675 233.157 106.174 232.371 107.483C231.586 109.054 218.491 110.102 200.945 110.102C170.829 110.102 170.829 110.102 169.519 103.555C168.21 97.2705 167.686 97.0086 124.999 97.0086L119.238 110.102C113.739 122.41 113.477 123.195 117.929 124.766C120.286 125.814 130.237 126.076 139.665 125.552C151.45 124.766 158.782 122.933 161.925 120.053C166.115 116.125 172.138 115.339 197.541 115.339C220.586 115.339 228.443 116.125 228.443 118.743C228.443 120.315 225.824 125.552 222.682 130.004C219.277 134.717 213.778 140.74 210.111 143.359C206.445 146.239 199.374 150.953 194.398 153.572C186.28 158.023 177.9 158.547 111.905 159.595C50.8868 160.38 38.8403 159.856 40.4116 156.976C41.4591 154.881 51.6725 131.051 63.4572 103.555C75.2419 76.0593 85.1934 52.2296 85.979 50.6584C86.7647 48.3016 94.883 47.2541 142.022 47.2541L139.403 60.3474H161.139C178.423 60.6093 183.661 59.5618 187.327 55.8957C189.946 53.277 191.779 48.3016 190.47 38.0888L95.6687 37.5651C13.1758 36.7795 0.605469 36.2558 0.605469 32.8515Z" fill="#ffffff"/>
</svg>
