<svg width="1103" height="101" viewBox="0 0 1103 101" fill="none" xmlns="http://www.w3.org/2000/svg">
<path fill-rule="evenodd" clip-rule="evenodd" d="M112.668 0.480439V10.8824C112.668 21.2843 112.252 21.2843 79.4103 21.2843C61.1187 21.2843 42.4114 23.3646 37.8385 25.445C31.6027 28.7736 29.5241 33.7666 29.5241 47.4971C29.5241 57.0668 31.6027 67.4688 34.5127 70.3813C37.4227 73.2938 49.4786 75.3742 83.5675 75.3742V60.8115C83.5675 47.081 84.3989 46.2489 112.668 46.2489V100.339H67.7702C29.5241 100.755 21.6255 99.5066 12.0639 92.0173C0.839547 84.1118 0.423828 82.0314 0.423828 50.4096C0.423828 22.5325 1.67098 15.8753 8.73819 8.80197C16.2211 1.31259 22.4569 0.480439 112.668 0.480439ZM178.351 0.480439C214.519 0.0643624 219.507 1.31259 226.99 9.21805C232.81 15.4592 235.72 25.029 236.552 43.7524C237.383 57.4829 236.136 73.7099 233.642 79.535C231.147 85.3601 224.496 92.4334 218.676 95.3459C212.856 97.8423 193.317 100.339 175.025 100.339C145.094 100.339 140.521 99.5066 131.375 89.9369C122.229 80.7832 120.982 75.3742 120.566 50.8257C120.151 27.5254 121.814 20.4521 129.296 11.2984C137.611 0.896516 140.105 0.480439 178.351 0.480439ZM155.071 52.49L155.642 62.0119C156.022 68.3491 161.272 73.2938 167.62 73.2938H190.702C197.068 73.2938 202.345 68.3035 202.62 61.9433C203.787 34.974 202.224 29.9701 197.059 26.2772C192.901 23.3646 184.171 23.3415 178.351 23.3415C172.531 23.3415 165.048 23.7807 161.307 26.6933C155.487 30.4379 154.24 36.263 155.071 52.49ZM245.698 0.480439H274.798V32.9344C274.798 53.3222 276.461 67.0527 279.786 70.3813C283.528 73.7099 297.662 75.3742 357.941 75.3742V100.339H313.044C274.798 100.755 266.899 99.5066 256.922 92.0173C246.113 84.1118 245.698 82.4475 245.698 42.0881V0.480439ZM366.256 0.480439H416.142C465.612 0.480439 466.028 0.480439 474.342 12.1306C480.994 20.8682 483.073 29.6058 482.657 51.6579C482.657 75.3742 481.41 81.1993 472.264 89.9369C462.702 99.9227 459.792 100.339 366.256 100.339V0.480439ZM399.513 75.3742L447.321 73.2938C449.399 36.263 448.152 30.4379 442.332 26.2772C438.175 23.3646 426.951 21.2843 416.973 21.2843H399.513V75.3742ZM611.53 0.480439L609.451 23.3646L522.982 27.5254L561.643 42.0881C582.845 49.9935 602.799 60.3955 605.71 64.9723C609.035 69.5491 611.53 75.7903 611.53 78.7028C611.53 81.1993 607.788 87.4404 603.215 92.0173C595.732 99.5066 589.496 100.339 490.971 100.339V75.3742L572.036 73.2938L540.857 61.6437C523.813 54.9865 505.521 47.081 500.117 43.7524C495.128 40.4238 490.556 33.3505 490.14 26.6933C489.724 20.8682 493.05 12.1306 497.207 7.96982C503.443 1.31259 511.757 0.480439 611.53 0.480439ZM619.844 0.480439H668.899C709.223 0.480439 718.785 1.72867 725.021 7.96982C729.593 12.5467 732.504 21.2843 732.088 31.6862C732.088 40.8399 729.593 52.0739 726.268 56.6508C721.279 63.7241 714.628 64.9723 648.944 67.0527V83.6957C648.944 99.9227 648.528 100.339 619.844 100.339V0.480439ZM673.887 42.0881C690.1 42.0881 699.662 40.4238 700.493 37.0952C701.74 34.1826 700.077 29.1897 697.583 26.2772C694.673 23.3646 683.033 21.2843 670.561 21.2843C650.191 21.2843 648.944 22.1164 648.944 31.6862C648.944 41.672 650.191 42.0881 673.887 42.0881ZM856.803 0.480439V10.8824C856.803 21.2843 856.388 21.2843 823.546 21.2843C805.254 21.2843 786.547 23.3646 781.974 25.445C777.401 27.9415 773.66 31.6862 773.66 33.7666C773.66 36.263 790.288 37.9273 856.803 37.9273L854.725 60.8115L813.984 62.0598C784.053 62.4758 774.075 64.1401 774.907 68.3009C776.154 71.6295 788.625 73.7099 856.803 75.3742V100.339H810.243C769.918 100.755 762.02 99.5067 752.874 92.4334C743.728 85.3601 742.481 80.7832 741.234 53.7382C739.986 27.5254 740.818 21.7003 748.717 12.1306C757.447 0.480439 757.862 0.480439 856.803 0.480439ZM977.361 0.480439V10.8824C977.361 20.8682 976.53 21.2843 947.43 21.2843C930.801 21.2843 912.925 22.1164 907.937 23.3646C902.532 24.6129 898.375 28.3576 898.375 31.6862C898.375 36.6791 905.442 37.9273 977.361 37.9273V62.8919H937.868C908.352 62.8919 898.791 64.1401 899.622 68.3009C900.869 71.6295 912.925 73.7099 977.361 75.3742V100.339H931.632C888.398 100.339 885.488 99.9227 875.511 89.9369C866.365 80.7832 865.118 75.3742 864.286 49.5775C863.455 22.9486 864.702 18.7878 873.432 10.0502C882.578 1.31259 886.735 0.480439 977.361 0.480439ZM985.676 0.480439H1035.56C1082.12 0.480439 1085.86 1.31259 1093.76 10.0502C1100.83 17.5396 1102.08 25.029 1102.08 49.5775C1102.08 75.7903 1100.83 80.7832 1091.68 89.9369C1081.71 99.9227 1079.63 100.339 987.754 98.2584L985.676 46.2489H1002.3C1018.52 46.2489 1018.93 46.6649 1018.93 75.3742L1066.74 73.2938L1067.99 50.4096C1069.24 29.6058 1068.4 27.1093 1059.67 24.6129C1054.27 22.9486 1035.56 21.2843 1018.1 21.2843C986.507 21.2843 985.676 21.2843 985.676 10.8824V0.480439Z" fill="#E9E333"/>
</svg>
