<svg width="876" height="166" viewBox="0 0 876 166" fill="none" xmlns="http://www.w3.org/2000/svg">
<path fill-rule="evenodd" clip-rule="evenodd" d="M259.651 158.347C261.683 141.665 259.983 113.048 259.983 95.0855C259.983 83.9276 258.063 75.188 265.507 69.6437C276.16 61.7121 355.061 14.9374 361.17 9.18331C305.189 5.87678 274.054 13.2467 220.469 21.1674C206.159 23.283 190.635 26.3743 176.375 27.5908C145.694 30.2098 107.421 28.344 75.7641 28.344C64.2925 28.344 63.0195 27.3847 53.3224 31.3861C46.5981 34.1601 41.7267 36.0587 35.1173 38.8272C28.7997 41.4753 3.89044 50.5012 0.0458984 53.5962C26.5966 54.9422 56.6253 53.6965 83.5681 53.6965C199.032 53.6965 161.424 57.0577 268.907 29.5495C278.015 27.2187 293.271 22.3201 302.047 21.4775C296.019 25.2892 255.075 39.9689 244.475 44.1617C235.282 47.7966 224.233 51.2107 215.683 55.5221C210.927 57.9204 207.071 60.8512 203.781 63.6507C201.401 65.6752 201.162 66.753 199.03 68.9835C196.973 71.1356 195.87 71.5879 193.949 73.8895L170.419 100.568C168.296 103.194 167.641 103.178 165.338 105.477C161.661 109.151 160.395 112.466 156.033 116.263L132.13 142.524C127.698 147.727 120.274 155.163 118.895 158.373L259.651 158.351V158.347Z" fill="#01AFE1"/>
<path fill-rule="evenodd" clip-rule="evenodd" d="M676.247 33.5537C688.135 33.5537 696.262 35.9994 704.139 28.7293C703.646 15.5026 706.068 11.4508 688.267 11.5235L588.513 11.5314C577.978 11.5314 557.546 9.34331 553.874 16.3617C552.254 19.4541 553.146 90.9609 553.136 100.68C553.128 107.402 552.24 116.007 556.98 118.966C562.592 122.471 570.602 120.42 573.083 116.439C576.267 111.336 574.935 85.0906 574.913 77.1188L665.432 77.2013C675.523 77.2249 683.096 77.1797 682.953 65.8245C682.797 53.4903 674.249 55.0079 663.026 55.0237L574.923 55.1416L575.157 33.5518H676.245L676.247 33.5537Z" fill="white"/>
<path fill-rule="evenodd" clip-rule="evenodd" d="M384.226 17.8872C378.759 35.6297 395.703 33.5556 408.244 33.5537C421.524 33.5537 434.804 33.5674 448.082 33.5497C449.251 49.0314 448.315 67.9968 448.315 83.8579C448.315 107.868 444.435 121.006 459.865 120.697C469.058 120.513 470.177 115.531 470.273 106.737C470.499 85.6076 469.107 51.3571 470.503 33.5556C478.542 33.5556 525.109 34.8748 530.66 32.0085C534.612 29.9678 536.403 22.5504 534.062 16.9553C530.546 8.54899 507.665 11.5333 498.378 11.5333C471.537 11.5333 444.698 11.5333 417.857 11.5333C408.12 11.5333 387.157 8.37206 384.224 17.8891L384.226 17.8872Z" fill="white"/>
<path fill-rule="evenodd" clip-rule="evenodd" d="M788.914 46.8079C785.405 50.5334 773.658 57.3964 768.474 59.6749C764.763 63.3689 729.193 84.8703 721.591 89.5492C716.139 92.9031 676.858 117.188 675.281 119.477C683.027 119.5 701.526 120.961 706.856 118.106C712.201 115.242 720.578 108.497 725.89 104.679C738.649 95.5021 751.202 86.8264 763.913 77.789L840.465 24.0503C838.619 25.3399 834.846 28.7096 833.02 30.2961C807.736 52.2339 764.305 84.8644 736.359 107.889C731.802 111.644 726.287 114.951 722.554 119.439L756.496 119.486L797.755 79.4384C799.487 76.2497 810.467 65.7182 813.742 63.5989C823.212 50.4016 871.385 8.08694 875.49 1.19439C861.502 0.240911 862.389 0.838548 850.163 8.9775C843.549 13.3792 836.932 17.2207 830.254 21.5378C823.621 25.8236 817.05 29.9048 809.631 34.5366C803.835 38.1539 794.894 44.3289 788.92 46.8099L788.914 46.8079Z" fill="#01AFE1"/>
<path fill-rule="evenodd" clip-rule="evenodd" d="M797.752 79.4384L855.603 118.393C866.017 124.374 873.617 115.828 872.337 105.491C870.753 100.834 820.826 68.0163 813.741 63.6008C810.466 65.7181 799.486 76.2516 797.754 79.4403L797.752 79.4384Z" fill="white"/>
<path fill-rule="evenodd" clip-rule="evenodd" d="M768.474 59.6749C773.66 57.3964 785.405 50.5334 788.914 46.8079C777.205 39.0798 766.112 31.5581 754.46 23.6511C750.322 20.8438 740.899 13.5364 737.038 12.1996C727.732 8.97938 721.975 17.2206 722.789 26.1695C724.712 32.3936 758.027 51.8013 768.472 59.6748L768.474 59.6749Z" fill="white"/>
<path fill-rule="evenodd" clip-rule="evenodd" d="M497.574 147.946C499.466 146.593 497.269 146.785 501.799 146.063L522.03 146.23C528.055 145.597 524.93 145.886 525.817 142.903C521.211 139.424 499.375 140.777 493.794 142.417C490.888 151.471 491.599 155.602 501.817 155.84C520.39 156.271 519.505 153.218 520.978 159.802C510.593 162.033 498.839 158.218 492.76 161.817C494.017 167.089 492.979 165.272 509.43 165.296C517.41 165.307 519.936 166.839 525.866 162.202L525.664 153.891C518.441 148.095 513.78 151.836 503.015 151.011C496.038 150.477 499.278 151.04 497.577 147.948L497.574 147.946Z" fill="white"/>
<path fill-rule="evenodd" clip-rule="evenodd" d="M604.987 149.208C606.969 146.377 601.118 146.078 611.484 146.016C617.626 145.981 628.386 146.884 633.277 145.42L632.85 141.645C628.143 140.133 604.632 140.583 600.161 141.546L600.629 163.989C600.674 163.824 600.973 164.614 601.13 165.181L626.689 165.294C636.571 165.294 633.895 161.402 630.439 160.507L619.124 160.389C613.283 160.402 608.664 161.109 605.105 159.296C606.014 153.738 608.277 155.708 615.335 155.796C620.582 155.862 624.445 156.586 628.442 154.577C629.451 146.985 616.64 152.61 607.794 150.813C604.721 150.188 606.722 150.531 604.987 149.211V149.208Z" fill="white"/>
<path fill-rule="evenodd" clip-rule="evenodd" d="M389.879 147.946C397.7 141.676 417.428 151.77 418.018 142.208C412.34 140.137 389.483 140.888 387.487 142.095C383.236 147.488 383.096 154.874 392.084 155.792C395.487 156.139 401.186 155.794 404.814 155.769C410.694 155.728 410.832 154.705 413.297 158.034C410.61 161.806 405.971 160.408 399.73 160.389C397.222 160.381 394.609 160.303 392.119 160.332L385.302 161.419C384.717 165.861 385.556 165.294 390.902 165.294C403.168 165.356 404.474 166 416.438 164.477C427.083 142.243 393.67 156.236 389.875 147.948L389.879 147.946Z" fill="white"/>
<path fill-rule="evenodd" clip-rule="evenodd" d="M712.626 147.946C719.583 142.128 740.236 151.261 740.739 142.293C740.427 142.171 707.901 136.068 707.468 147.965C706.886 163.958 733.32 149.149 735.888 159.001C730.515 162.378 714.982 158.711 708.031 161.336C707.445 165.177 706.798 165.115 712.303 165.397L739.149 164.428C741.807 158.686 741.824 157.397 739.103 151.667C726.233 148.988 715.561 154.229 712.629 147.948L712.626 147.946Z" fill="white"/>
<path fill-rule="evenodd" clip-rule="evenodd" d="M815.112 154.251C815.102 158.187 814.891 157.05 813.342 159.841C803.834 160.662 802.306 161.13 793.123 159.377C790.359 155.043 790.784 151.269 792.744 147.54C795.534 146.018 793.781 146.123 798.166 146.125C811.762 146.129 815.137 144.275 815.112 154.251ZM788.771 142.526C785.626 149.126 785.822 152.102 786.938 160.961C790.141 167.33 815.419 167.736 818.907 160.965C821.339 154.511 820.039 147.579 817.671 142.522C809.172 140.457 797.188 140.309 788.771 142.526Z" fill="white"/>
<path fill-rule="evenodd" clip-rule="evenodd" d="M551.107 149.209C552.5 145.04 548.455 147.033 554.684 145.995C555.292 145.892 561.206 146.117 562.383 146.121C567.445 146.135 571.205 145.011 574.682 147.946C572.814 152.335 566.366 151.189 557.266 150.984C550.976 150.844 552.512 150.388 551.107 149.209ZM576.254 155.142C582.122 149.699 581.452 141.658 572.36 140.944C551.25 139.288 546.646 138.832 546.126 146.581C546.021 148.167 546.225 151.213 546.23 152.989C546.242 157.669 545.708 161.122 547.09 164.997L549.985 164.721C551.897 160.926 550.918 161.194 551.462 155.893L576.252 155.14L576.254 155.142Z" fill="white"/>
<path fill-rule="evenodd" clip-rule="evenodd" d="M845.198 149.429C863.936 156.174 873.89 177.548 873.671 156.801C873.533 143.576 875.42 144.145 871.297 141.022C867.312 143.945 868.515 144.646 868.973 157.329C857.427 152.278 847.485 140.461 840.194 141.965L840.085 146.684C839.92 161.32 838.464 165.348 843.952 164.958C845.773 161.285 845.212 159.278 845.212 154.251L845.198 149.429Z" fill="white"/>
<path fill-rule="evenodd" clip-rule="evenodd" d="M657.802 165.109C659.427 160.216 658.854 154.905 658.763 149.602C666.582 151.164 679.108 165.296 686.676 165.045L685.95 141.259C681.484 142.573 682.431 141.763 682.414 147.855C682.406 150.925 682.518 154.128 682.575 157.207C670.406 152.17 662.144 141.297 654.43 141.759C653.077 146.016 653.72 151.007 653.687 155.534C653.636 162.056 652.058 164.752 657.802 165.106V165.109Z" fill="white"/>
<path fill-rule="evenodd" clip-rule="evenodd" d="M455.21 165.298C471.459 165.292 472.145 164.805 472.267 149.186C472.337 139.972 471.669 142.258 469.082 141.055C464.528 147.565 470.099 157.009 464.825 159.96C458.947 160.748 450.082 161.528 445.124 159.288C440.205 151.224 447.76 143.559 440.079 141.158C438.755 143.246 439.281 139.271 438.415 145.366C435.282 167.379 446.159 165.3 455.21 165.298Z" fill="white"/>
<path fill-rule="evenodd" clip-rule="evenodd" d="M762.123 165.055C768.253 165.098 766.281 161.012 766.256 154.258C766.23 147.542 768.418 142.918 762.864 141.15L762.123 165.053V165.055Z" fill="white"/>
</svg>
